<svg width="17" height="17" viewBox="0 0 17 17" fill="none" xmlns="http://www.w3.org/2000/svg">
<path d="M2.72505 5.89359V6.06053H2.89198H14.9112H15.0781V5.89359V5.14239C15.0781 4.76607 14.9286 4.40516 14.6625 4.13906C14.3964 3.87295 14.0355 3.72346 13.6592 3.72346H4.14398C3.76766 3.72346 3.40674 3.87295 3.14064 4.13906C2.87454 4.40516 2.72505 4.76607 2.72505 5.14239V5.89359ZM15.0781 6.89519V6.72826H14.9112H2.89198H2.72505V6.89519V11.6528C2.72505 12.0291 2.87454 12.39 3.14064 12.6561C3.40674 12.9222 3.76766 13.0717 4.14398 13.0717H13.6592C14.0355 13.0717 14.3964 12.9222 14.6625 12.6561C14.9286 12.39 15.0781 12.0291 15.0781 11.6528V6.89519ZM2.05731 5.14239C2.05731 4.58898 2.27716 4.05822 2.66848 3.6669C3.05981 3.27557 3.59056 3.05573 4.14398 3.05573H13.6592C14.2126 3.05573 14.7433 3.27557 15.1347 3.6669C15.526 4.05822 15.7458 4.58898 15.7458 5.14239V11.6528C15.7458 12.2062 15.526 12.737 15.1347 13.1283C14.7433 13.5196 14.2126 13.7395 13.6592 13.7395H4.14398C3.59056 13.7395 3.05981 13.5196 2.66848 13.1283C2.27716 12.737 2.05731 12.2062 2.05731 11.6528V5.14239ZM11.4056 10.0669H12.908C12.9965 10.0669 13.0814 10.1021 13.1441 10.1647C13.2067 10.2273 13.2418 10.3122 13.2418 10.4008C13.2418 10.4893 13.2067 10.5743 13.1441 10.6369C13.0814 10.6995 12.9965 10.7347 12.908 10.7347H11.4056C11.317 10.7347 11.2321 10.6995 11.1695 10.6369C11.1069 10.5743 11.0717 10.4893 11.0717 10.4008C11.0717 10.3122 11.1069 10.2273 11.1695 10.1647C11.2321 10.1021 11.317 10.0669 11.4056 10.0669Z" fill="#4CAF4F" stroke="#4CAF4F" stroke-width="0.333867"/>
</svg>
