<svg width="17" height="17" viewBox="0 0 17 17" fill="none" xmlns="http://www.w3.org/2000/svg">
<g clip-path="url(#clip0_212_1407)">
<path d="M11.3479 4.12007C11.1038 4.11963 10.8607 4.1534 10.6259 4.22038L10.6259 4.22037L10.624 4.22094C10.5497 4.24309 10.4718 4.25025 10.3948 4.24199C10.3177 4.23374 10.2431 4.21024 10.1752 4.17286L10.0947 4.31909L10.1752 4.17286C10.1073 4.13548 10.0475 4.08498 9.99936 4.02428C9.95118 3.96358 9.91556 3.8939 9.89457 3.81931C9.87358 3.74471 9.86764 3.66668 9.87709 3.58977C9.88655 3.51286 9.91121 3.43859 9.94964 3.3713C9.98807 3.304 10.0395 3.24503 10.1009 3.19781C10.1624 3.15058 10.2326 3.11605 10.3075 3.09623L10.3075 3.09625L10.3105 3.0954C10.6478 2.99938 10.9968 2.95096 11.3475 2.95154L11.3483 2.95154C12.1363 2.94925 12.9058 3.18987 13.5522 3.64064C14.1985 4.09141 14.6902 4.73041 14.9603 5.47066C15.2305 6.21091 15.2659 7.01643 15.0618 7.77753C14.8577 8.53864 14.424 9.21836 13.8198 9.72414L13.616 9.89468L13.8581 10.0042C14.8508 10.4535 15.705 11.1604 16.3319 12.0516L16.3327 12.0526C16.3772 12.1149 16.4089 12.1855 16.426 12.2601C16.443 12.3348 16.4451 12.4122 16.432 12.4876C16.4188 12.5631 16.3909 12.6352 16.3496 12.6998C16.3084 12.7644 16.2548 12.8201 16.1918 12.8637L16.1918 12.8637L16.1899 12.8651C16.0924 12.9348 15.9755 12.9721 15.8557 12.9717C15.7621 12.9711 15.6699 12.9483 15.5868 12.905C15.5037 12.8618 15.4321 12.7994 15.3778 12.723C14.9226 12.0772 14.3191 11.5501 13.6179 11.186C12.9166 10.8219 12.1382 10.6313 11.348 10.6305H11.3478C11.1928 10.6305 11.0442 10.5689 10.9347 10.4593C10.8251 10.3498 10.7635 10.2012 10.7635 10.0462C10.7635 9.89125 10.8251 9.74264 10.9347 9.63307C11.0442 9.5235 11.1928 9.46194 11.3478 9.46194C12.0562 9.46194 12.7355 9.18054 13.2364 8.67964C13.7373 8.17874 14.0187 7.49938 14.0187 6.79101C14.0187 6.08263 13.7373 5.40327 13.2364 4.90237C12.7356 4.4015 12.0563 4.12011 11.3479 4.12007ZM11.3479 4.12007C11.348 4.12007 11.348 4.12007 11.3481 4.12007L11.3478 4.28701V4.12007C11.3478 4.12007 11.3479 4.12007 11.3479 4.12007ZM8.71755 9.7244L8.51478 9.89498L8.75619 10.0042C9.74888 10.4535 10.6031 11.1604 11.23 12.0516L11.2299 12.0517L11.235 12.0582C11.2837 12.1206 11.3192 12.1923 11.3394 12.2688L11.5008 12.2262L11.3394 12.2688C11.3596 12.3453 11.364 12.4252 11.3524 12.5035C11.3407 12.5818 11.3133 12.6569 11.2718 12.7243C11.2303 12.7916 11.1755 12.8499 11.1108 12.8955C11.0461 12.941 10.9728 12.973 10.8953 12.9893C10.8179 13.0057 10.7379 13.0062 10.6603 12.9907C10.5827 12.9753 10.509 12.9442 10.4437 12.8994C10.3785 12.8546 10.323 12.797 10.2807 12.7301L10.2808 12.73L10.2762 12.7235C9.82194 12.0764 9.21853 11.5482 8.51701 11.1836C7.8155 10.819 7.03651 10.6287 6.2459 10.6287C5.45529 10.6287 4.6763 10.819 3.97478 11.1836C3.27327 11.5482 2.66986 12.0764 2.21556 12.7235L2.21519 12.724C2.16178 12.8007 2.09057 12.8633 2.00767 12.9064C1.92477 12.9496 1.83264 12.972 1.73918 12.9717L1.73816 12.9717C1.6183 12.9721 1.50134 12.9348 1.40383 12.8651L1.40303 12.8645C1.27664 12.7753 1.19079 12.6396 1.16432 12.4872C1.13785 12.3348 1.17292 12.1781 1.26183 12.0514C1.88877 11.1603 2.74296 10.4534 3.7356 10.0042L3.97702 9.89498L3.77424 9.7244C3.1716 9.21743 2.73943 8.53742 2.53633 7.77654C2.33322 7.01566 2.36899 6.21072 2.63881 5.47086C2.90862 4.73101 3.39942 4.09201 4.04466 3.64051C4.6899 3.18901 5.45838 2.94684 6.2459 2.94684C7.03342 2.94684 7.80189 3.18901 8.44714 3.64051C9.09238 4.09201 9.58318 4.73101 9.85299 5.47086C10.1228 6.21072 10.1586 7.01566 9.95547 7.77654C9.75236 8.53742 9.32019 9.21743 8.71755 9.7244ZM1.30676 13.0009C1.43275 13.091 1.58384 13.1391 1.7387 13.1386C1.85915 13.139 1.97789 13.1101 2.08473 13.0545C2.19158 12.9989 2.28335 12.9182 2.35218 12.8194C2.79108 12.1943 3.37404 11.684 4.05177 11.3318C4.7295 10.9795 5.48209 10.7956 6.2459 10.7956C7.00971 10.7956 7.76229 10.9795 8.44003 11.3318C9.11776 11.684 9.70072 12.1943 10.1396 12.8194L1.30676 13.0009ZM4.0251 5.30712C3.73161 5.74635 3.57497 6.26275 3.57497 6.79101C3.57497 7.49938 3.85637 8.17874 4.35726 8.67964C4.85816 9.18054 5.53752 9.46194 6.2459 9.46194C6.77416 9.46194 7.29056 9.30529 7.72979 9.01181C8.16902 8.71832 8.51136 8.30118 8.71352 7.81313C8.91568 7.32508 8.96857 6.78804 8.86551 6.26993C8.76245 5.75182 8.50807 5.27591 8.13453 4.90237C7.761 4.52884 7.28508 4.27445 6.76697 4.1714C6.24886 4.06834 5.71183 4.12123 5.22378 4.32339C4.73573 4.52554 4.31859 4.86788 4.0251 5.30712Z" fill="#4CAF4F" stroke="#4CAF4F" stroke-width="0.333867"/>
</g>
<defs>
<clipPath id="clip0_212_1407">
<rect width="16.0256" height="16.0256" fill="white" transform="translate(0.737061 0.0301514)"/>
</clipPath>
</defs>
</svg>
