<svg width="20" height="17" viewBox="0 0 20 17" fill="none" xmlns="http://www.w3.org/2000/svg">
<g clip-path="url(#clip0_212_1155)">
<path d="M19.0253 7.26085C19.0272 7.24693 19.0272 7.23285 19.0253 7.21893C19.0271 7.20759 19.0271 7.19602 19.0253 7.18465L18.8893 6.20554C18.8696 6.0884 18.8172 5.97891 18.7377 5.88933L18.7144 5.86266L18.6717 5.82075L16.3167 3.83205L16.3828 3.89682C16.3287 3.83342 16.2609 3.78271 16.1842 3.74843C16.1075 3.71414 16.024 3.69715 15.9398 3.69871H15.2247C15.1084 3.69645 14.9948 3.73269 14.9022 3.80157C14.8049 3.73311 14.6877 3.69705 14.568 3.69871H13.8529C13.7591 3.69722 13.6666 3.72003 13.5847 3.76486C13.5029 3.80968 13.4345 3.87492 13.3866 3.95396C13.3127 4.06686 13.285 4.20288 13.3089 4.33494L13.3983 4.95212C13.339 4.91921 13.272 4.90214 13.2039 4.9026H9.74146C9.61724 4.90336 9.49586 4.93906 9.39171 5.00546C9.29099 5.06726 9.21015 5.15576 9.15855 5.26071L8.89041 5.03594C8.78487 4.94021 8.64557 4.88832 8.50181 4.89117H3.06908C2.94441 4.89339 2.82251 4.92754 2.71546 4.99022C2.569 5.07426 2.46167 5.21091 2.41623 5.3712L0.690811 11.0287C0.658572 11.1219 0.655401 11.2225 0.681703 11.3175C0.708005 11.4125 0.762589 11.4976 0.838483 11.5621C0.858259 11.5785 0.879023 11.5938 0.900662 11.6078C0.900662 11.6078 0.865681 11.5849 0.846251 11.5659L3.20122 13.5584C3.30084 13.6483 3.43109 13.6986 3.56648 13.6994H9.04198C9.16702 13.6962 9.289 13.6607 9.39561 13.5965C9.4559 13.5642 9.50984 13.5216 9.55493 13.4708L9.57437 13.4441L9.60545 13.406L9.62876 13.3641L9.88525 13.5813C9.98344 13.6676 10.1109 13.7151 10.2428 13.7146H15.7299C15.8548 13.7105 15.9766 13.6751 16.0835 13.6117C16.1425 13.5775 16.1961 13.5351 16.2429 13.486L16.2623 13.4593L16.2934 13.4213C16.3099 13.3971 16.3242 13.3717 16.3361 13.345C16.3488 13.322 16.3592 13.2977 16.3672 13.2727L17.9411 8.10662V8.0609C17.943 8.04317 17.943 8.02529 17.9411 8.00756V7.97329C17.9429 7.96192 17.9429 7.95035 17.9411 7.93898C17.9428 7.91489 17.9428 7.8907 17.9411 7.86659H18.4463C18.4902 7.87055 18.5344 7.87055 18.5784 7.86659H18.6134C18.6418 7.85828 18.6692 7.84676 18.695 7.83231H18.7338L18.8038 7.77898L18.8349 7.75611L18.8893 7.68753V7.66469L18.9281 7.59991C18.926 7.58732 18.926 7.57442 18.9281 7.56183C18.9261 7.55564 18.9261 7.54896 18.9281 7.54277C18.9364 7.52044 18.9429 7.4975 18.9476 7.47419C18.9457 7.46668 18.9457 7.45884 18.9476 7.45133C18.9457 7.43998 18.9457 7.42839 18.9476 7.41705C18.9476 7.41705 19.0253 7.26846 19.0253 7.26085Z" fill="black"/>
<path d="M8.6611 5.32548C8.68173 5.34377 8.69614 5.36782 8.70239 5.39438C8.70866 5.42095 8.70644 5.44876 8.69609 5.47406L6.97456 11.1278C6.95288 11.1895 6.90853 11.2411 6.85021 11.2725C6.80274 11.3037 6.74781 11.322 6.69086 11.3259H1.21929C1.17256 11.3237 1.12829 11.3047 1.09493 11.2725C1.07509 11.2545 1.06116 11.2312 1.05493 11.2054C1.0487 11.1796 1.05045 11.1526 1.05996 11.1278L2.78537 5.47406C2.80525 5.41155 2.84821 5.35857 2.90584 5.32548C2.95409 5.29659 3.00876 5.27959 3.06517 5.27595H8.53674C8.58311 5.27639 8.62756 5.2941 8.6611 5.32548ZM5.80484 9.98864L6.83465 6.61318H3.9512L2.92527 9.98864H5.80484ZM13.884 5.38262C13.9026 5.40389 13.926 5.42076 13.9522 5.43197C13.9785 5.44318 14.0069 5.44845 14.0355 5.44739H14.7467C14.7738 5.44765 14.8004 5.44114 14.8243 5.42847C14.8481 5.41581 14.8682 5.3974 14.8827 5.375C14.8953 5.3575 14.9042 5.3377 14.9089 5.31675C14.9136 5.29581 14.9139 5.27416 14.9099 5.25309L14.77 4.24731C14.7567 4.20076 14.7328 4.15778 14.7001 4.12159C14.6814 4.10032 14.6581 4.08345 14.6318 4.07224C14.6056 4.06103 14.5771 4.05576 14.5485 4.05682H13.8374C13.8103 4.05656 13.7836 4.06307 13.7598 4.07574C13.736 4.08841 13.7159 4.10681 13.7013 4.12921C13.6741 4.18255 13.6625 4.21683 13.6741 4.24731L13.8179 5.25309C13.8253 5.30207 13.8484 5.34745 13.884 5.38262ZM16.1418 4.23969C16.1285 4.19314 16.1045 4.15016 16.0718 4.11397C16.054 4.09278 16.0313 4.07592 16.0057 4.06468C15.9801 4.05345 15.9522 4.04815 15.9242 4.0492H15.2091C15.1825 4.04846 15.1561 4.05479 15.1329 4.06754C15.1096 4.08028 15.0903 4.09896 15.077 4.12159C15.0511 4.15539 15.04 4.19784 15.0459 4.23969L15.1897 5.24547C15.1987 5.29393 15.2216 5.33886 15.2558 5.375C15.2748 5.39586 15.2982 5.41244 15.3243 5.42362C15.3505 5.4348 15.3788 5.4403 15.4073 5.43977H16.1224C16.1489 5.44011 16.1751 5.43361 16.1983 5.4209C16.2215 5.4082 16.2409 5.38975 16.2545 5.36739C16.268 5.35034 16.2774 5.33054 16.2822 5.30945C16.2869 5.28835 16.2867 5.26649 16.2817 5.24547L16.1418 4.23969ZM13.2583 5.7636L13.1884 5.26833H9.74143C9.68731 5.27125 9.63495 5.28836 9.58986 5.31786C9.56125 5.33316 9.53633 5.35437 9.51687 5.38002C9.49744 5.40567 9.4839 5.43515 9.47719 5.46644L9.18961 6.41126C9.17813 6.43487 9.1742 6.46136 9.17836 6.4872C9.18254 6.51304 9.19458 6.53703 9.21292 6.55604C9.24569 6.58623 9.28846 6.60384 9.3334 6.60557H13.5226L12.4928 9.98103H8.31524C8.26138 9.98223 8.20892 9.99806 8.1637 10.0267C8.10874 10.061 8.06859 10.1139 8.051 10.1753L7.75954 11.1202C7.75003 11.1444 7.74753 11.1707 7.75232 11.1963C7.75714 11.2218 7.76903 11.2456 7.78673 11.2649C7.81848 11.2971 7.86158 11.3162 7.90721 11.3182H13.3943C13.4511 11.3135 13.5058 11.2952 13.5536 11.2649C13.611 11.2333 13.6541 11.1816 13.6741 11.1202L15.2519 5.95409H13.4759C13.4478 5.95463 13.4198 5.94951 13.3937 5.93902C13.3677 5.92854 13.3441 5.91291 13.3244 5.89313C13.2923 5.85858 13.2695 5.81666 13.2583 5.77122V5.7636Z" fill="white"/>
</g>
<defs>
<clipPath id="clip0_212_1155">
<rect width="18.3627" height="10.016" fill="white" transform="translate(0.664062 3.69861)"/>
</clipPath>
</defs>
</svg>
